<?xml version="1.0" standalone="no"?><!DOCTYPE svg PUBLIC "-//W3C//DTD SVG 1.1//EN" "http://www.w3.org/Graphics/SVG/1.1/DTD/svg11.dtd"><svg class="icon" height="512" viewBox="0 0 1024 1024" version="1.1" xmlns="http://www.w3.org/2000/svg"><path d="M963.490909 520.393444C963.490909 264.971029 763.60764 60.509091 520.393444 60.509091 262.648456 60.509091 60.509091 262.648456 60.509091 520.393444 60.509091 763.60764 264.971029 963.490909 520.393444 963.490909 761.351545 963.490909 963.490909 761.351545 963.490909 520.393444ZM0 520.393444C0 229.230208 229.230208 0 520.393444 0 794.76979 0 1024 229.230208 1024 520.393444 1024 794.76979 794.76979 1024 520.393444 1024 229.230208 1024 0 794.76979 0 520.393444ZM277.465972 707.491477 277.465972 575.590074 418.952109 575.590074 480.467819 534.336959 480.467819 376.380955 418.952109 335.127841 232.727273 335.127841 232.727273 707.491477 277.465972 707.491477ZM277.465972 532.165744 277.465972 378.552172 403.852798 378.552172C415.596706 386.694234 425.10368 392.122275 435.729121 399.178729L435.729121 511.539186C422.866745 520.224051 415.037473 524.566486 403.852798 532.165744L277.465972 532.165744ZM746.10385 707.491477 813.211899 641.812177 813.211899 404.60677 746.66308 335.127841 593.433037 335.127841 526.884222 404.60677 526.884222 641.812177 593.992271 707.491477 746.10385 707.491477ZM611.887751 664.067146 571.622921 624.442442 571.622921 421.433698C586.72223 406.235183 598.466141 392.665079 611.887751 378.552172L728.20837 378.552172 768.4732 421.433698 768.4732 624.442442 728.20837 664.067146 611.887751 664.067146Z" /></svg>